<?xml version="1.0" standalone="no"?>
<!DOCTYPE svg PUBLIC "-//W3C//DTD SVG 1.1//EN" "http://www.w3.org/Graphics/SVG/1.1/DTD/svg11.dtd" >
<svg xmlns="http://www.w3.org/2000/svg" xmlns:xlink="http://www.w3.org/1999/xlink" version="1.1">
<metadata></metadata>
<defs>
<font id="rct2regular" horiz-adv-x="768" >
<font-face units-per-em="2048" ascent="1638" descent="-410" />
<missing-glyph horiz-adv-x="640" />
<glyph horiz-adv-x="0" />
<glyph horiz-adv-x="682" />
<glyph unicode=" "  horiz-adv-x="640" />
<glyph unicode="&#x09;" horiz-adv-x="640" />
<glyph unicode="&#xa0;" horiz-adv-x="640" />
<glyph unicode="!" horiz-adv-x="384" d="M0 0v256h256v-256h-256zM0 384v640h256v-640h-256z" />
<glyph unicode="&#x22;" horiz-adv-x="896" d="M0 512v128h128v128h-128v256h256v-128h128v128h256v-128h128v-256h-128v-128h-256v128h128v128h-128v-128h-128v-128h-256z" />
<glyph unicode="#" horiz-adv-x="1024" d="M0 256v128h128v128h-128v128h128v256h256v-256h128v256h256v-256h128v-128h-128v-128h128v-128h-128v-256h-256v256h-128v-256h-256v256h-128zM384 384h128v128h-128v-128z" />
<glyph unicode="$" horiz-adv-x="896" d="M0 128v128h128v-128h-128zM0 512v256h128v-256h-128zM128 0v128h128v256h-128v128h128v256h-128v128h128v128h256v-128h128v-128h-128v-256h128v-128h-128v-256h128v-128h-128v-128h-256v128h-128zM640 128v256h128v-256h-128zM640 640v128h128v-128h-128z" />
<glyph unicode="%" horiz-adv-x="1152" d="M0 0v128h128v128h128v128h128v128h-256v128h-128v256h128v128h384v-128h128v-128h128v128h256v-128h-128v-128h-128v-128h128v-128h128v-256h-128v-128h-384v128h-256v-128h-256zM256 640h128v256h-128v-256zM640 128h128v256h-128v-256z" />
<glyph unicode="&#x26;" horiz-adv-x="1024" d="M0 128v256h128v128h128v128h-128v256h128v128h384v-128h128v-256h-128v-128h-128v-128h128v128h256v-256h-128v-128h128v-128h-256v128h-128v-128h-384v128h-128zM256 256h128v128h-128v-128zM384 640h128v128h-128v-128z" />
<glyph unicode="'" horiz-adv-x="384" d="M0 512v128h128v-128h-128zM0 768v256h256v-384h-128v128h-128z" />
<glyph unicode="(" horiz-adv-x="512" d="M0 0v896h128v128h256v-128h-128v-896h128v-128h-256v128h-128z" />
<glyph unicode=")" horiz-adv-x="512" d="M0 0h128v896h-128v128h256v-128h128v-896h-128v-128h-256v128z" />
<glyph unicode="*" horiz-adv-x="896" d="M0 256v128h128v-128h-128zM0 640v128h128v-128h-128zM128 384v256h128v256h256v-256h128v-256h-128v-256h-256v256h-128zM640 256v128h128v-128h-128zM640 640v128h128v-128h-128z" />
<glyph unicode="+" horiz-adv-x="896" d="M0 256v256h256v256h256v-256h256v-256h-256v-256h-256v256h-256z" />
<glyph unicode="," horiz-adv-x="384" d="M0 0v256h256v-384h-128v128h-128zM0 -128h128v-128h-128v128z" />
<glyph unicode="-" d="M0 256v256h640v-256h-640z" />
<glyph unicode="." horiz-adv-x="384" d="M0 0v256h256v-256h-256z" />
<glyph unicode="/" d="M0 0v256h128v256h128v256h128v256h256v-256h-128v-256h-128v-256h-128v-256h-256z" />
<glyph unicode="0" horiz-adv-x="1024" d="M0 256v512h128v128h128v128h384v-128h128v-128h128v-512h-128v-128h-128v-128h-384v128h-128v128h-128zM256 384h128v-128h128v128h128v256h-128v128h-128v-128h-128v-256z" />
<glyph unicode="1" horiz-adv-x="640" d="M0 640v128h128v128h128v128h256v-1024h-256v640h-256z" />
<glyph unicode="2" horiz-adv-x="896" d="M0 0v256h128v128h128v128h128v128h128v128h-256v-128h-256v256h128v128h512v-128h128v-384h-128v-128h-128v-128h256v-256h-768z" />
<glyph unicode="3" horiz-adv-x="896" d="M0 128v256h256v-128h256v128h-128v256h128v128h-256v-128h-256v256h128v128h512v-128h128v-256h-128v-256h128v-256h-128v-128h-512v128h-128z" />
<glyph unicode="4" horiz-adv-x="896" d="M0 256v768h256v-512h128v256h256v-256h128v-256h-128v-256h-256v256h-384z" />
<glyph unicode="5" horiz-adv-x="896" d="M0 128v128h512v128h-512v640h768v-256h-512v-128h384v-128h128v-384h-128v-128h-512v128h-128z" />
<glyph unicode="6" horiz-adv-x="896" d="M0 128v768h128v128h512v-128h128v-128h-512v-128h384v-128h128v-384h-128v-128h-512v128h-128zM256 256h256v128h-256v-128z" />
<glyph unicode="7" horiz-adv-x="896" d="M0 768v256h768v-512h-128v-256h-128v-256h-256v384h128v256h128v128h-512z" />
<glyph unicode="8" horiz-adv-x="896" d="M0 128v384h128v128h-128v256h128v128h512v-128h128v-256h-128v-128h128v-384h-128v-128h-512v128h-128zM256 256h256v128h-256v-128zM256 640h256v128h-256v-128z" />
<glyph unicode="9" horiz-adv-x="896" d="M0 512v384h128v128h512v-128h128v-640h-128v-128h-128v-128h-384v128h128v128h128v128h-256v128h-128zM256 640h256v128h-256v-128z" />
<glyph unicode=":" horiz-adv-x="384" d="M0 0v256h256v-256h-256zM0 512v256h256v-256h-256z" />
<glyph unicode=";" horiz-adv-x="512" d="M0 0v256h384v-384h-128v-128h-256v128h128v128h-128zM0 512v256h384v-256h-384z" />
<glyph unicode="&#x3c;" horiz-adv-x="640" d="M0 384v128h128v128h128v128h256v-128h-128v-128h-128v-128h128v-128h128v-128h-256v128h-128v128h-128z" />
<glyph unicode="=" d="M0 256v128h640v-128h-640zM0 512v128h640v-128h-640z" />
<glyph unicode="&#x3e;" horiz-adv-x="640" d="M0 128v128h128v128h128v128h-128v128h-128v128h256v-128h128v-128h128v-128h-128v-128h-128v-128h-256z" />
<glyph unicode="?" horiz-adv-x="896" d="M0 640v256h128v128h512v-128h128v-384h-128v-128h-128v-128h-256v256h128v128h128v128h-256v-128h-256zM256 0v128h256v-128h-256z" />
<glyph unicode="@" horiz-adv-x="1152" d="M0 256v512h128v128h128v128h512v-128h128v-128h128v-384h-128v-128h-512v512h256v-256h-128v-128h128v128h128v256h-128v128h-256v-128h-128v-512h128v-128h512v-128h-640v128h-128v128h-128z" />
<glyph unicode="A" horiz-adv-x="1024" d="M0 0v768h128v128h128v128h384v-128h128v-128h128v-768h-256v256h-384v-256h-256zM256 512h384v128h-128v128h-128v-128h-128v-128z" />
<glyph unicode="B" horiz-adv-x="896" d="M0 0v1024h640v-128h128v-256h-128v-128h128v-384h-128v-128h-640zM256 256h256v128h-256v-128zM256 640h256v128h-256v-128z" />
<glyph unicode="C" horiz-adv-x="1024" d="M0 256v512h128v128h128v128h512v-128h128v-256h-256v128h-256v-128h-128v-256h128v-128h256v128h256v-256h-128v-128h-512v128h-128v128h-128z" />
<glyph unicode="D" horiz-adv-x="1024" d="M0 0v1024h640v-128h128v-128h128v-512h-128v-128h-128v-128h-640zM256 256h256v128h128v256h-128v128h-256v-512z" />
<glyph unicode="E" horiz-adv-x="896" d="M0 0v1024h768v-256h-512v-128h384v-256h-384v-128h512v-256h-768z" />
<glyph unicode="F" horiz-adv-x="896" d="M0 0v1024h768v-256h-512v-128h384v-256h-384v-384h-256z" />
<glyph unicode="G" horiz-adv-x="1152" d="M0 256v512h128v128h128v128h512v-128h128v-128h128v-128h-384v128h-256v-128h-128v-256h128v-128h256v128h-128v128h512v-256h-128v-128h-128v-128h-512v128h-128v128h-128z" />
<glyph unicode="H" horiz-adv-x="1024" d="M0 0v1024h256v-384h384v384h256v-1024h-256v384h-384v-384h-256z" />
<glyph unicode="I" horiz-adv-x="384" d="M0 0v1024h256v-1024h-256z" />
<glyph unicode="J" d="M0 128v256h256v-128h128v768h256v-896h-128v-128h-384v128h-128z" />
<glyph unicode="K" horiz-adv-x="896" d="M0 0v1024h256v-256h128v128h128v128h256v-256h-128v-128h-128v-256h128v-128h128v-256h-256v128h-128v128h-128v-256h-256z" />
<glyph unicode="L" horiz-adv-x="896" d="M0 0v1024h256v-768h512v-256h-768z" />
<glyph unicode="M" horiz-adv-x="1280" d="M0 0v1024h256v-128h128v-128h128v-128h128v128h128v128h128v128h256v-1024h-256v512h-128v-128h-128v-128h-128v128h-128v128h-128v-512h-256z" />
<glyph unicode="N" horiz-adv-x="1024" d="M0 0v1024h256v-128h128v-128h128v-128h128v384h256v-1024h-256v256h-128v128h-128v128h-128v-512h-256z" />
<glyph unicode="O" horiz-adv-x="1152" d="M0 256v512h128v128h128v128h512v-128h128v-128h128v-512h-128v-128h-128v-128h-512v128h-128v128h-128zM256 384h128v-128h256v128h128v256h-128v128h-256v-128h-128v-256z" />
<glyph unicode="P" horiz-adv-x="896" d="M0 0v1024h640v-128h128v-512h-128v-128h-384v-256h-256zM256 512h256v256h-256v-256z" />
<glyph unicode="Q" horiz-adv-x="1152" d="M0 256v512h128v128h128v128h512v-128h128v-128h128v-512h-128v-128h-128v-128h-512v128h-128v128h-128zM256 384h128v-128h256v128h128v256h-128v128h-256v-128h-128v-256zM512 384v128h128v-128h-128zM896 0v128h128v-128h-128z" />
<glyph unicode="R" horiz-adv-x="896" d="M0 0v1024h640v-128h128v-512h-128v-128h128v-256h-256v128h-128v128h-128v-256h-256zM256 512h256v256h-256v-256z" />
<glyph unicode="S" horiz-adv-x="896" d="M0 0v256h512v128h-384v128h-128v384h128v128h640v-256h-512v-128h384v-128h128v-384h-128v-128h-640z" />
<glyph unicode="T" horiz-adv-x="896" d="M0 768v256h768v-256h-256v-768h-256v768h-256z" />
<glyph unicode="U" horiz-adv-x="1024" d="M0 128v896h256v-768h384v768h256v-896h-128v-128h-640v128h-128z" />
<glyph unicode="V" horiz-adv-x="1152" d="M0 768v256h256v-256h128v-256h256v256h128v256h256v-256h-128v-256h-128v-256h-128v-256h-256v256h-128v256h-128v256h-128z" />
<glyph unicode="W" horiz-adv-x="1536" d="M0 768v256h256v-256h128v-256h128v-128h128v128h-128v256h-128v256h256v-256h128v-256h256v256h128v256h256v-256h-128v-256h-128v-256h-128v-256h-256v256h-128v-256h-256v256h-128v256h-128v256h-128z" />
<glyph unicode="X" horiz-adv-x="1280" d="M0 0v128h128v128h128v128h128v256h-128v128h-128v128h-128v128h256v-128h128v-128h128v-128h128v128h128v128h128v128h256v-128h-128v-128h-128v-128h-128v-256h128v-128h128v-128h128v-128h-256v128h-128v128h-128v128h-128v-128h-128v-128h-128v-128h-256z" />
<glyph unicode="Y" horiz-adv-x="1152" d="M0 768v256h256v-128h128v-128h256v128h128v128h256v-256h-128v-128h-128v-128h-128v-512h-256v512h-128v128h-128v128h-128z" />
<glyph unicode="Z" horiz-adv-x="1024" d="M0 0v256h128v128h128v128h128v128h128v128h-512v256h896v-384h-128v-128h-128v-128h-128v-128h384v-256h-896z" />
<glyph unicode="[" horiz-adv-x="512" d="M0 -128v1152h384v-128h-128v-896h128v-128h-384z" />
<glyph unicode="\" horiz-adv-x="640" d="M0 640v384h128v-256h128v-256h128v-256h128v-384h-128v256h-128v256h-128v256h-128z" />
<glyph unicode="]" horiz-adv-x="512" d="M0 0h128v896h-128v128h384v-1152h-384v128z" />
<glyph unicode="^" d="M0 512v256h128v-256h-128zM128 768v128h128v-128h-128zM256 896v128h128v-128h-128zM384 768v128h128v-128h-128zM512 512v256h128v-256h-128z" />
<glyph unicode="_" d="M0 0v128h640v-128h-640z" />
<glyph unicode="`" horiz-adv-x="384" d="M0 512v384h128v-128h128v-256h-256zM128 896v128h128v-128h-128z" />
<glyph unicode="a" d="M0 128v256h128v128h256v128h-384v128h512v-128h128v-512h-128v-128h-384v128h-128zM256 256h128v128h-128v-128z" />
<glyph unicode="b" d="M0 0v1024h256v-256h256v-128h128v-512h-128v-128h-512zM256 256h128v384h-128v-384z" />
<glyph unicode="c" d="M0 128v512h128v128h384v-128h128v-128h-256v128h-128v-384h128v128h256v-256h-128v-128h-384v128h-128z" />
<glyph unicode="d" d="M0 128v512h128v128h256v256h256v-1024h-512v128h-128zM256 256h128v384h-128v-384z" />
<glyph unicode="e" d="M0 128v512h128v128h384v-128h128v-256h-384v-128h384v-128h-128v-128h-384v128h-128zM256 512h128v128h-128v-128z" />
<glyph unicode="f" d="M0 512v128h128v256h128v128h384v-128h-256v-256h128v-128h-128v-512h-256v512h-128z" />
<glyph unicode="g" d="M0 128v512h128v128h512v-896h-128v-128h-384v128h256v128h-256v128h-128zM256 256h128v384h-128v-384z" />
<glyph unicode="h" d="M0 0v1024h256v-256h256v-128h128v-640h-256v640h-128v-640h-256z" />
<glyph unicode="i" horiz-adv-x="384" d="M0 0v768h256v-768h-256zM0 896v128h256v-128h-256z" />
<glyph unicode="j" horiz-adv-x="640" d="M0 -128h256v896h256v-896h-128v-128h-384v128zM256 896v128h256v-128h-256z" />
<glyph unicode="k" d="M0 0v1024h256v-384h128v128h256v-128h-128v-128h-128v-128h128v-128h128v-256h-256v128h-128v-128h-256z" />
<glyph unicode="l" horiz-adv-x="384" d="M0 0v1024h256v-1024h-256z" />
<glyph unicode="m" horiz-adv-x="1152" d="M0 0v768h896v-128h128v-640h-256v640h-128v-640h-256v640h-128v-640h-256z" />
<glyph unicode="n" d="M0 0v768h512v-128h128v-640h-256v640h-128v-640h-256z" />
<glyph unicode="o" d="M0 128v512h128v128h384v-128h128v-512h-128v-128h-384v128h-128zM256 256h128v384h-128v-384z" />
<glyph unicode="p" d="M0 -256v1024h512v-128h128v-512h-128v-128h-256v-256h-256zM256 256h128v384h-128v-384z" />
<glyph unicode="q" d="M0 128v512h128v128h512v-1024h-256v256h-256v128h-128zM256 256h128v384h-128v-384z" />
<glyph unicode="r" horiz-adv-x="640" d="M0 0v640h128v128h384v-128h-256v-640h-256z" />
<glyph unicode="s" d="M0 128v128h384v128h-256v128h-128v128h128v128h512v-128h-384v-128h256v-128h128v-256h-128v-128h-384v128h-128z" />
<glyph unicode="t" horiz-adv-x="640" d="M0 128v768h256v-128h128v-128h-128v-384h256v-256h-384v128h-128z" />
<glyph unicode="u" d="M0 128v640h256v-512h128v512h256v-640h-128v-128h-384v128h-128z" />
<glyph unicode="v" horiz-adv-x="896" d="M0 512v256h256v-256h256v256h256v-256h-128v-256h-128v-256h-256v256h-128v256h-128z" />
<glyph unicode="w" horiz-adv-x="1280" d="M0 512v256h256v-256h128v256h256v-256h256v256h256v-256h-128v-256h-128v-256h-256v256h-128v-256h-256v256h-128v256h-128z" />
<glyph unicode="x" horiz-adv-x="896" d="M0 0v256h128v128h128v128h-128v128h-128v128h256v-128h256v128h256v-128h-128v-128h-128v-128h128v-128h128v-256h-256v128h-256v-128h-256z" />
<glyph unicode="y" horiz-adv-x="896" d="M0 512v256h256v-256h256v256h256v-256h-128v-256h-128v-256h-128v-256h-256v256h128v256h-128v256h-128z" />
<glyph unicode="z" d="M0 0v256h128v128h128v128h128v128h-384v128h640v-256h-128v-128h-128v-128h256v-256h-640z" />
<glyph unicode="&#xad;" d="M0 256v256h640v-256h-640z" />
<glyph unicode="&#x2000;" horiz-adv-x="682" />
<glyph unicode="&#x2001;" horiz-adv-x="1365" />
<glyph unicode="&#x2002;" horiz-adv-x="682" />
<glyph unicode="&#x2003;" horiz-adv-x="1365" />
<glyph unicode="&#x2004;" horiz-adv-x="455" />
<glyph unicode="&#x2005;" horiz-adv-x="341" />
<glyph unicode="&#x2006;" horiz-adv-x="227" />
<glyph unicode="&#x2007;" horiz-adv-x="227" />
<glyph unicode="&#x2008;" horiz-adv-x="170" />
<glyph unicode="&#x2009;" horiz-adv-x="273" />
<glyph unicode="&#x200a;" horiz-adv-x="75" />
<glyph unicode="&#x2010;" d="M0 256v256h640v-256h-640z" />
<glyph unicode="&#x2011;" d="M0 256v256h640v-256h-640z" />
<glyph unicode="&#x2012;" d="M0 256v256h640v-256h-640z" />
<glyph unicode="&#x2013;" horiz-adv-x="1152" d="M0 256v256h1024v-256h-1024z" />
<glyph unicode="&#x2014;" horiz-adv-x="2176" d="M0 256v256h2048v-256h-2048z" />
<glyph unicode="&#x202f;" horiz-adv-x="273" />
<glyph unicode="&#x205f;" horiz-adv-x="341" />
<glyph unicode="&#x25fc;" horiz-adv-x="770" d="M0 0v770h770v-770h-770z" />
</font>
</defs>
</svg>
